<svg width="106" height="106" viewBox="0 0 106 106" fill="none" xmlns="http://www.w3.org/2000/svg">
<path d="M46.7955 18.8353L49.4876 18.426L48.6527 12.9344C48.4711 11.74 49.2182 10.7859 50.4063 10.6053C50.7791 10.5486 51.3006 10.534 51.5659 10.5777L51.2027 8.18897C50.9539 8.1686 50.6132 8.18161 50.3415 8.22292C49.2546 8.38818 48.4596 9.15559 48.2883 10.4101L48.1871 10.4255L47.9297 8.73185L45.3197 9.12866L46.7955 18.8353Z" fill="white"/>
<path d="M62.3941 19.4676C65.3281 19.9817 67.5059 18.2931 68.0276 15.3151C68.5527 12.3181 67.0777 9.99601 64.1437 9.48195C61.2097 8.96788 59.033 10.6501 58.5079 13.6471C57.9861 16.6252 59.4601 18.9536 62.3941 19.4676ZM62.7707 17.3921C61.417 17.1549 60.9418 15.7932 61.2374 14.1059C61.5331 12.4185 62.4441 11.2932 63.7977 11.5304C65.1262 11.7632 65.6004 13.1311 65.3047 14.8185C65.0091 16.5059 64.0992 17.6249 62.7707 17.3921Z" fill="white"/>
<path d="M71.3001 23.5959L73.4535 25.1991L74.3925 23.9379L74.4899 24.0104C74.3038 24.8919 74.4194 26.1175 75.6909 27.0641C77.4854 28.4002 79.9425 28.022 81.9045 25.3867C83.92 22.6796 83.4589 20.2484 81.731 18.962C80.4134 17.981 79.1987 18.2959 78.4293 18.7192L78.3626 18.6696L81.3019 14.7217L79.1177 13.0956L71.3001 23.5959ZM76.3697 21.2501C77.4156 19.8452 78.6784 19.3908 79.7397 20.181C80.8215 20.9864 80.6972 22.3522 79.6818 23.716C78.6588 25.09 77.3643 25.6085 76.2928 24.8107C75.2417 24.0282 75.3238 22.6549 76.3697 21.2501Z" fill="white"/>
<path d="M83.7985 36.1872C84.822 38.39 86.5839 39.3758 88.3976 38.956L87.4871 36.602C86.6931 36.6678 86.0432 36.1945 85.6607 35.3713C85.087 34.1366 85.5408 32.9742 86.8683 32.3574L86.8741 32.3547L89.6914 38.4183L90.3696 38.1031C93.3956 36.6972 94.0401 34.1705 92.9465 31.8169C91.7291 29.1968 89.0791 28.3629 86.3314 29.6395C83.5083 30.9512 82.5245 33.4453 83.7985 36.1872ZM88.4044 31.6437C89.4431 31.2245 90.6129 31.6184 91.122 32.714C91.6203 33.7864 91.1998 34.884 90.1417 35.3827L88.4044 31.6437Z" fill="white"/>
<path d="M87.2024 46.5466L87.4318 49.2599L92.9668 48.7919C94.1706 48.6901 95.0729 49.4991 95.1742 50.6965C95.2059 51.0723 95.1859 51.5936 95.1246 51.8554L97.5322 51.6518C97.5691 51.4049 97.5787 51.0641 97.5556 50.7903C97.463 49.6947 96.7501 48.8505 95.5098 48.5962L95.5011 48.4942L97.2081 48.3499L96.9857 45.7194L87.2024 46.5466Z" fill="white"/>
<path d="M95.6066 65.9077L96.0312 64.1099L98.3205 64.6506L98.9464 62.0005L96.6572 61.4598L96.9657 60.1534L94.975 59.6832L94.6665 60.9896L89.6898 59.8141C87.8202 59.3594 86.5921 60.4158 86.2189 62.3571C86.0822 63.0473 86.1045 63.5648 86.1284 63.8529L88.1988 63.9019C88.2048 63.7654 88.2087 63.4707 88.2675 63.2219C88.3924 62.6931 88.6781 62.3731 89.4122 62.5465L94.0405 63.6397L93.6159 65.4375L95.6066 65.9077Z" fill="white"/>
<path d="M79.2131 83.6238C79.9189 84.6743 79.7116 85.7115 78.8021 86.3293C77.898 86.9434 76.9511 86.7211 76.2812 85.7235L73.0415 80.9541L70.789 82.4841L74.3016 87.6554C75.5874 89.5483 77.4879 89.9574 79.18 88.8081C80.3855 87.9892 80.8557 86.8044 80.5777 85.6101L80.6729 85.5454L81.6462 86.9783L83.7929 85.5202L78.2763 77.3984L76.0238 78.9284L79.2131 83.6238Z" fill="white"/>
<path d="M58.8452 90.7692C58.6209 89.4716 59.3954 88.6416 60.3599 88.4797C61.3748 88.3093 62.15 88.9116 62.3479 90.0515L63.3024 95.7376L65.9878 95.2868L64.9529 89.1216C64.5667 86.8596 63.0111 85.7013 61.0632 86.0283C59.607 86.2728 58.6865 87.1986 58.442 88.4063L58.3412 88.4232L58.0459 86.6645L55.4677 87.0973L57.0931 96.78L59.7786 96.3292L58.8452 90.7692Z" fill="white"/>
<path d="M44.8151 86.3872C41.8907 85.8213 39.6834 87.4711 39.109 90.4395C38.531 93.4267 39.9647 95.7745 42.8892 96.3404C45.8136 96.9063 48.0197 95.2628 48.5978 92.2756C49.1721 89.3072 47.7396 86.9531 44.8151 86.3872ZM44.4018 88.4558C45.7511 88.7168 46.2022 90.0867 45.8768 91.7686C45.5513 93.4505 44.6206 94.5595 43.2713 94.2984C41.9471 94.0421 41.4973 92.666 41.8227 90.9841C42.1481 89.3022 43.0777 88.1995 44.4018 88.4558Z" fill="white"/>
<path d="M34.4464 81.861L32.2864 80.2029L28.904 84.609C28.1684 85.5673 26.9627 85.6893 26.0094 84.9576C25.7103 84.7279 25.3385 84.362 25.1863 84.1403L23.715 86.0569C23.8727 86.2505 24.118 86.4872 24.3361 86.6546C25.2082 87.324 26.3123 87.3658 27.3358 86.6204L27.4169 86.6827L26.3738 88.0415L28.4678 89.6491L34.4464 81.861Z" fill="white"/>
<path d="M14.1343 73.7261L15.071 75.3183L13.0435 76.5111L14.4242 78.8581L16.4517 77.6653L17.1323 78.8223L18.8953 77.7852L18.2147 76.6282L22.6222 74.0353C24.2871 73.0708 24.4435 71.4584 23.3704 69.7981C22.9919 69.2051 22.6178 68.8466 22.4013 68.6551L20.872 70.0517C20.9621 70.1544 21.1631 70.3699 21.2927 70.5903C21.5682 71.0586 21.5831 71.4874 20.933 71.8698L16.834 74.2812L15.8973 72.689L14.1343 73.7261Z" fill="white"/>
<path d="M18.9647 57.6714C18.3824 55.3133 16.8421 54.0081 14.9815 54.0725L15.4239 56.5574C16.2159 56.645 16.763 57.2341 16.9806 58.1153C17.307 59.4371 16.6389 60.4909 15.2178 60.8419L15.2116 60.8434L13.6087 54.3523L12.8826 54.5316C9.64328 55.3315 8.52647 57.6879 9.14864 60.2074C9.84131 63.0123 12.2823 64.3386 15.2238 63.6123C18.2459 62.866 19.6896 60.6067 18.9647 57.6714ZM13.5733 61.248C12.4735 61.4603 11.4009 60.8495 11.1113 59.6766C10.8278 58.5286 11.4508 57.532 12.5849 57.2453L13.5733 61.248Z" fill="white"/>
<path d="M11.0751 36.8697L10.4949 39.6936L16.9671 43.0983L16.9465 43.1985L9.65501 43.7822L9.07619 46.5998L19.3843 45.2132L20.0017 42.2078L11.0751 36.8697Z" fill="white"/>
<path d="M25.7527 31.2441C26.6418 30.0974 26.7175 28.9671 26.2889 28.0281L26.3359 27.9675L27.4118 28.8018L28.9942 26.761L23.761 22.7032C21.9122 21.2696 19.92 22.2323 18.5805 23.9599C17.1391 25.8188 17.0803 27.7306 18.2635 29.1254L19.9684 27.2605C19.5668 26.7145 19.5444 25.961 20.1436 25.1882C20.7116 24.4557 21.4054 24.3224 22.0419 24.8159L22.0722 24.8394C22.5723 25.2272 22.2267 25.8085 21.3122 27.259C20.263 28.9043 19.7089 30.6829 21.4415 32.0264C22.9771 33.2171 24.605 32.7241 25.7527 31.2441ZM24.7454 29.4762C24.2323 30.138 23.556 30.3739 22.965 29.9156C22.3588 29.4456 22.4485 28.7144 22.93 27.8744C23.2286 27.3537 23.7128 26.4998 23.7408 26.109L24.5642 26.7474C25.3775 27.378 25.4778 28.5316 24.7454 29.4762Z" fill="white"/>
<path d="M83.5439 73.5859C83.5093 74.4034 84.1626 75.1412 85.0117 75.1836C85.8486 75.2126 86.5619 74.5327 86.5966 73.7152C86.6323 72.8722 85.9784 72.1472 85.1415 72.1181C84.2924 72.0758 83.5796 72.7429 83.5439 73.5859Z" fill="white"/>
<path d="M36.162 18.4126C36.9065 18.0732 37.2683 17.1565 36.9215 16.3803C36.5683 15.6211 35.6389 15.2931 34.8945 15.6325C34.1268 15.9825 33.7766 16.8939 34.1297 17.6532C34.4766 18.4293 35.3943 18.7626 36.162 18.4126Z" fill="white"/>
</svg>
