<svg width="65" height="65" viewBox="0 0 65 65" fill="none" xmlns="http://www.w3.org/2000/svg">
<path d="M28.2701 10.3302L30.0648 10.0574L29.5082 6.39632C29.3871 5.60007 29.8852 4.964 30.6773 4.84358C30.9258 4.80579 31.2735 4.79603 31.4503 4.82518L31.2082 3.23269C31.0424 3.21911 30.8152 3.22778 30.6341 3.25532C29.9094 3.36549 29.3795 3.8771 29.2652 4.71343L29.1978 4.72368L29.0262 3.59461L27.2862 3.85914L28.2701 10.3302Z" fill="white"/>
<path d="M38.3865 10.791C40.3425 11.1337 41.7944 10.008 42.1422 8.0226C42.4923 6.02462 41.5089 4.47657 39.5529 4.13386C37.5969 3.79115 36.1458 4.91266 35.7957 6.91063C35.4479 8.89601 36.4305 10.4483 38.3865 10.791ZM38.6376 9.40729C37.7352 9.24918 37.4183 8.34139 37.6154 7.21648C37.8125 6.09157 38.4198 5.34138 39.3223 5.49949C40.2079 5.65467 40.524 6.56665 40.327 7.69156C40.1299 8.81647 39.5233 9.56247 38.6376 9.40729Z" fill="white"/>
<path d="M44.0312 13.4819L45.4667 14.5507L46.0928 13.7098L46.1577 13.7582C46.0336 14.3458 46.1107 15.1629 46.9583 15.794C48.1547 16.6847 49.7927 16.4326 51.1007 14.6757C52.4444 12.871 52.137 11.2502 50.9851 10.3926C50.1066 9.73857 49.2969 9.94853 48.7839 10.2307L48.7395 10.1977L50.699 7.56574L49.2429 6.48165L44.0312 13.4819ZM47.4109 11.918C48.1082 10.9814 48.95 10.6784 49.6575 11.2052C50.3788 11.7422 50.2959 12.6527 49.619 13.5619C48.937 14.4779 48.074 14.8236 47.3596 14.2917C46.6589 13.7701 46.7136 12.8545 47.4109 11.918Z" fill="white"/>
<path d="M52.0687 21.8231C52.7511 23.2916 53.9257 23.9488 55.1348 23.6689L54.5279 22.0996C53.9985 22.1435 53.5652 21.8279 53.3103 21.2791C52.9278 20.456 53.2303 19.6811 54.1153 19.2699L54.1191 19.2681L55.9973 23.3105L56.4495 23.1004C58.4668 22.1631 58.8965 20.4786 58.1675 18.9096C57.3558 17.1628 55.5892 16.6068 53.7574 17.458C51.8753 18.3324 51.2194 19.9952 52.0687 21.8231ZM55.1394 18.7941C55.8319 18.5146 56.6117 18.7772 56.9511 19.5076C57.2833 20.2226 57.003 20.9543 56.2976 21.2867L55.1394 18.7941Z" fill="white"/>
<path d="M54.1317 28.2909L54.2847 30.0998L57.9747 29.7878C58.7772 29.72 59.3787 30.2593 59.4462 31.0576C59.4674 31.3081 59.454 31.6556 59.4132 31.8301L61.0183 31.6944C61.0428 31.5298 61.0493 31.3026 61.0339 31.1201C60.9721 30.3897 60.4969 29.8269 59.67 29.6573L59.6642 29.5894L60.8022 29.4932L60.6539 27.7395L54.1317 28.2909Z" fill="white"/>
<path d="M59.6907 40.8657L59.9738 39.6671L61.5 40.0276L61.9172 38.2608L60.3911 37.9004L60.5968 37.0294L59.2696 36.716L59.0639 37.5869L55.7461 36.8033C54.4998 36.5001 53.681 37.2044 53.4323 38.4986C53.3411 38.9587 53.3559 39.3037 53.3719 39.4958L54.7522 39.5284C54.7562 39.4374 54.7588 39.241 54.7979 39.0751C54.8812 38.7226 55.0717 38.5093 55.5611 38.6248L58.6466 39.3536L58.3636 40.5522L59.6907 40.8657Z" fill="white"/>
<path d="M48.7971 52.2402C49.2676 52.9406 49.1294 53.632 48.5231 54.0439C47.9203 54.4533 47.2891 54.3051 46.8425 53.64L44.6827 50.4604L43.181 51.4804L45.5227 54.9279C46.3799 56.1899 47.647 56.4626 48.775 55.6964C49.5787 55.1505 49.8922 54.3606 49.7068 53.5644L49.7703 53.5213L50.4191 54.4766L51.8503 53.5045L48.1725 48.09L46.6709 49.11L48.7971 52.2402Z" fill="white"/>
<path d="M35.5534 56.6974C35.4039 55.8324 35.9203 55.279 36.5632 55.1711C37.2399 55.0575 37.7566 55.459 37.8885 56.219L38.5249 60.0097L40.3152 59.7092L39.6252 55.5991C39.3677 54.091 38.3307 53.3188 37.0321 53.5368C36.0613 53.6998 35.4476 54.317 35.2847 55.1222L35.2174 55.1335L35.0206 53.9609L33.3017 54.2495L34.3854 60.7046L36.1757 60.4041L35.5534 56.6974Z" fill="white"/>
<path d="M26.6687 53.654C24.719 53.2768 23.2475 54.3766 22.8646 56.3555C22.4792 58.347 23.4351 59.9122 25.3847 60.2895C27.3343 60.6667 28.8051 59.571 29.1904 57.5796C29.5733 55.6007 28.6183 54.0313 26.6687 53.654ZM26.3932 55.033C27.2927 55.2071 27.5934 56.1203 27.3764 57.2416C27.1595 58.3628 26.539 59.1022 25.6394 58.9281C24.7567 58.7573 24.4568 57.8399 24.6737 56.7186C24.8907 55.5974 25.5104 54.8622 26.3932 55.033Z" fill="white"/>
<path d="M20.1318 50.7204L18.6918 49.6149L16.4369 52.5524C15.9465 53.1912 15.1427 53.2726 14.5072 52.7847C14.3078 52.6316 14.0599 52.3877 13.9584 52.2399L12.9776 53.5176C13.0827 53.6467 13.2462 53.8045 13.3916 53.9161C13.973 54.3624 14.7091 54.3902 15.3914 53.8933L15.4455 53.9348L14.7501 54.8407L16.1461 55.9124L20.1318 50.7204Z" fill="white"/>
<path d="M6.8527 45.4552L7.47715 46.5167L6.12551 47.3118L7.04598 48.8765L8.39762 48.0814L8.85137 48.8527L10.0267 48.1612L9.57296 47.3899L12.5113 45.6613C13.6212 45.0183 13.7255 43.9434 13.0101 42.8366C12.7577 42.4412 12.5084 42.2022 12.364 42.0745L11.3445 43.0056C11.4046 43.0741 11.5385 43.2177 11.6249 43.3647C11.8086 43.6769 11.8186 43.9627 11.3852 44.2177L8.65249 45.8253L8.02804 44.7638L6.8527 45.4552Z" fill="white"/>
<path d="M10.264 35.082C9.87576 33.5099 8.84886 32.6399 7.60849 32.6828L7.90345 34.3394C8.43142 34.3977 8.79616 34.7905 8.94123 35.378C9.15884 36.2592 8.71343 36.9617 7.76603 37.1957L7.7619 37.1967L6.69328 32.8693L6.20924 32.9888C4.04968 33.5221 3.30514 35.093 3.71992 36.7727C4.1817 38.6426 5.80904 39.5269 7.77002 39.0426C9.78478 38.5451 10.7472 37.0389 10.264 35.082ZM6.66971 37.4664C5.93652 37.608 5.22145 37.2007 5.02837 36.4188C4.83936 35.6535 5.25469 34.9891 6.01076 34.798L6.66971 37.4664Z" fill="white"/>
<path d="M5.07793 21.5354L4.69119 23.418L9.00594 25.6878L8.99222 25.7546L4.13123 26.1438L3.74535 28.0221L10.6174 27.0977L11.029 25.0941L5.07793 21.5354Z" fill="white"/>
<path d="M14.8067 18.1618C15.3994 17.3973 15.4499 16.6438 15.1641 16.0178L15.1955 15.9774L15.9128 16.5336L16.9677 15.1731L13.4789 12.4678C12.2463 11.5121 10.9183 12.154 10.0252 13.3057C9.06428 14.545 9.02506 15.8195 9.81392 16.7493L10.9505 15.506C10.6827 15.142 10.6678 14.6397 11.0673 14.1245C11.4459 13.6362 11.9085 13.5473 12.3328 13.8763L12.353 13.892C12.6864 14.1505 12.456 14.5381 11.8464 15.5051C11.1469 16.602 10.7775 17.7877 11.9326 18.6833C12.9563 19.4771 14.0416 19.1485 14.8067 18.1618ZM14.1352 16.9832C13.7931 17.4244 13.3422 17.5817 12.9482 17.2761C12.5441 16.9628 12.6039 16.4753 12.9249 15.9154C13.1239 15.5682 13.4468 14.9989 13.4654 14.7384L14.0144 15.164C14.5565 15.5844 14.6235 16.3535 14.1352 16.9832Z" fill="white"/>
<path d="M52.1134 45.0749C52.0903 45.6198 52.5259 46.1117 53.0919 46.14C53.6499 46.1593 54.1254 45.706 54.1485 45.1611C54.1723 44.5991 53.7364 44.1157 53.1785 44.0963C52.6124 44.0681 52.1372 44.5129 52.1134 45.0749Z" fill="white"/>
<path d="M21.4671 9.89278C21.9634 9.6665 22.2047 9.0554 21.9734 8.53794C21.7379 8.03177 21.1184 7.81312 20.6221 8.0394C20.1103 8.27275 19.8768 8.88032 20.1123 9.38649C20.3435 9.90395 20.9553 10.1261 21.4671 9.89278Z" fill="white"/>
</svg>
