<svg xmlns="http://www.w3.org/2000/svg" fill="none" viewBox="0 0 128 128" height="128" width="128">
<circle fill="#FFCD93" r="64" cy="64" cx="64"></circle>
<path fill="url(#paint0_linear)" d="M62.544 97.024C53.584 97.024 45.7333 95.7013 38.992 93.056L41.936 77.824C48.08 80.0427 54.0533 81.152 59.856 81.152C64.1227 81.152 66.256 79.9573 66.256 77.568C66.256 76.3733 65.616 75.392 64.336 74.624C63.1413 73.856 60.8373 73.1733 57.424 72.576C50.3413 71.2107 45.2213 68.9067 42.064 65.664C38.992 62.4213 37.456 57.8133 37.456 51.84C37.7973 45.0987 40.4853 39.936 45.52 36.352C50.5547 32.768 57.424 30.976 66.128 30.976C70.5653 30.976 74.3627 31.2747 77.52 31.872C80.7627 32.384 83.7067 33.28 86.352 34.56L83.664 49.792C81.1893 48.8533 78.4587 48.128 75.472 47.616C72.5707 47.104 70.1387 46.848 68.176 46.848C65.2747 46.848 63.2693 47.1467 62.16 47.744C61.0507 48.3413 60.496 49.152 60.496 50.176C60.496 52.0533 62.6293 53.376 66.896 54.144C74.6613 55.5093 80.464 57.8987 84.304 61.312C88.144 64.7253 90.064 69.376 90.064 75.264C90.064 82.0053 87.6747 87.3387 82.896 91.264C78.2027 95.104 71.4187 97.024 62.544 97.024Z"></path>
<defs>
<linearGradient gradientUnits="userSpaceOnUse" y2="107" x2="64" y1="-21" x1="64" id="paint0_linear">
<stop stop-color="#FF0000"></stop>
<stop stop-color="#F42509" offset="1"></stop>
</linearGradient>
</defs>
</svg>
